<?xml version="1.0" encoding="utf-8"?>
<!-- Generator: Adobe Illustrator 23.0.3, SVG Export Plug-In . SVG Version: 6.00 Build 0)  -->
<svg version="1.1" id="Capa_1" xmlns="http://www.w3.org/2000/svg" xmlns:xlink="http://www.w3.org/1999/xlink" x="0px" y="0px"
	 width="284.9px" height="177.9px" viewBox="0 55 284.9 177.9" enable-background="new 0 55 284.9 177.9" xml:space="preserve">
<g>
	<path fill="#055F99" d="M282.1,76.5l-14.3-14.3c-1.9-1.9-4.1-2.9-6.6-2.9c-2.5,0-4.7,1-6.6,2.9L142.5,174.4L30.3,62.2
		c-1.9-1.9-4.1-2.9-6.6-2.9c-2.5,0-4.7,1-6.6,2.9L2.9,76.5C0.9,78.4,0,80.6,0,83.1c0,2.5,1,4.7,2.9,6.6l133,133
		c1.9,1.9,4.1,2.9,6.6,2.9c2.5,0,4.7-1,6.6-2.9l133.1-133c1.9-1.9,2.8-4.1,2.8-6.6C284.9,80.6,284,78.4,282.1,76.5z"/>
</g>
</svg>
